HIERARCHY
ROOT SpineBase
{
  OFFSET 0.000000 0.000000 0.000000
  CHANNELS 6 Xposition Yposition Zposition Zrotation Xrotation Yrotation
  JOINT SpineMid
  {
    OFFSET 0.000000 29.625564 0.000000
    CHANNELS 3 Zrotation Xrotation Yrotation
    JOINT SpineShoulder
    {
      OFFSET -0.044190 21.993566 -0.881741
      CHANNELS 3 Zrotation Xrotation Yrotation
      JOINT Neck
      {
        OFFSET 0.001258 7.276697 -0.608600
        CHANNELS 3 Zrotation Xrotation Yrotation
        JOINT Head
        {
          OFFSET -4.104891 13.691600 -0.896977
          CHANNELS 3 Zrotation Xrotation Yrotation
          End Site
          {
            OFFSET 0 0 0
          }
        }
      }
      JOINT ShoulderLeft
      {
        OFFSET -16.634051 -4.644308 4.195901
        CHANNELS 3 Zrotation Xrotation Yrotation
        JOINT ElbowLeft
        {
          OFFSET -2.147290 -26.991680 2.072035
          CHANNELS 3 Zrotation Xrotation Yrotation
          JOINT WristLeft
          {
            OFFSET -0.082441 -22.314613 -4.200733
            CHANNELS 3 Zrotation Xrotation Yrotation
            JOINT HandLeft
            {
              OFFSET 0.106237 -2.230721 0.562152
              CHANNELS 3 Zrotation Xrotation Yrotation
              JOINT HandTipLeft
              {
                OFFSET 0.053244 -5.348660 -0.947546
                CHANNELS 3 Zrotation Xrotation Yrotation
                End Site
                {
                  OFFSET 0 0 0
                }
              }
              JOINT ThumbLeft
              {
                OFFSET 3.855601 0.714288 -2.675090
                CHANNELS 3 Zrotation Xrotation Yrotation
                End Site
                {
                  OFFSET 0 0 0
                }
              }
            }
          }
        }
      }
      JOINT ShoulderRight
      {
        OFFSET 14.737212 -2.987751 -6.822048
        CHANNELS 3 Zrotation Xrotation Yrotation
        JOINT ElbowRight
        {
          OFFSET 6.473032 -25.497144 0.157775
          CHANNELS 3 Zrotation Xrotation Yrotation
          JOINT WristRight
          {
            OFFSET -1.446514 -22.066767 -5.611469
            CHANNELS 3 Zrotation Xrotation Yrotation
            JOINT HandRight
            {
              OFFSET -0.560449 -3.187721 1.259866
              CHANNELS 3 Zrotation Xrotation Yrotation
              JOINT HandTipRight
              {
                OFFSET 0.540098 -6.113790 -1.055469
                CHANNELS 3 Zrotation Xrotation Yrotation
                End Site
                {
                  OFFSET 0 0 0
                }
              }
              JOINT ThumbRight
              {
                OFFSET -4.094550 1.408362 -0.980216
                CHANNELS 3 Zrotation Xrotation Yrotation
                End Site
                {
                  OFFSET 0 0 0
                }
              }
            }
          }
        }
      }
    }
  }
  JOINT HipLeft
  {
    OFFSET -6.649258 0.466606 -1.474687
    CHANNELS 3 Zrotation Xrotation Yrotation
    JOINT KneeLeft
    {
      OFFSET 4.926152 -30.150100 7.396899
      CHANNELS 3 Zrotation Xrotation Yrotation
      JOINT AnkleLeft
      {
        OFFSET 3.816172 -31.208759 5.403448
        CHANNELS 3 Zrotation Xrotation Yrotation
        JOINT FootLeft
        {
          OFFSET 1.060787 -4.977793 -9.796015
          CHANNELS 3 Zrotation Xrotation Yrotation
          End Site
          {
            OFFSET 0 0 0
          }
        }
      }
    }
  }
  JOINT HipRight
  {
    OFFSET 7.409076 1.115399 -5.349178
    CHANNELS 3 Zrotation Xrotation Yrotation
    JOINT KneeRight
    {
      OFFSET 4.875591 -29.531316 6.484892
      CHANNELS 3 Zrotation Xrotation Yrotation
      JOINT AnkleRight
      {
        OFFSET 0.953533 -31.682014 6.479299
        CHANNELS 3 Zrotation Xrotation Yrotation
        JOINT FootRight
        {
          OFFSET 0.108791 -7.882727 -5.680679
          CHANNELS 3 Zrotation Xrotation Yrotation
          End Site
          {
            OFFSET 0 0 0
          }
        }
      }
    }
  }
}
MOTION
Frames: 14
Frame Time: 0.033333
-38.987323 68.333890 332.564985 -0.739056 -6.581307 22.729324 -1.019704 1.098426 -22.775797 -0.348767 1.018615 -0.067501 -4.263314 0.555441 -1.355599 0.000000 0.000000 0.000000 1.504376 3.700345 0.195979 3.193299 9.590873 -0.696100 41.713304 34.536054 3.685224 -56.175134 -25.222357 -29.768077 0.000000 0.000000 0.000000 0.000000 0.000000 0.000000 0.278277 3.518037 -0.118982 -1.189149 -4.137439 1.506481 9.129755 26.647024 -5.109881 -20.445992 -35.119017 -5.335198 0.000000 0.000000 0.000000 0.000000 0.000000 0.000000 0.453255 2.392726 -23.721648 7.991469 2.901442 1.512977 -15.132501 -39.238223 12.278977 0.000000 0.000000 0.000000 3.477961 0.692443 -23.219728 3.031742 0.468648 1.068409 -4.741185 -0.596526 -1.207389 0.000000 0.000000 0.000000
-38.949784 68.367930 332.409159 -0.885629 -6.079513 22.223504 -0.839251 1.304303 -22.283388 -0.198141 0.926824 -0.070811 -3.854516 0.125637 -1.319526 0.000000 0.000000 0.000000 2.341849 4.268491 0.108206 3.646523 9.411656 -1.006312 28.181235 22.397922 7.052895 -32.904348 -20.427173 -17.416111 0.000000 0.000000 0.000000 0.000000 0.000000 0.000000 0.687502 3.388001 -0.014744 -1.008903 -2.781037 1.101995 13.190709 31.204114 -5.893001 -28.816904 -38.846849 -10.091157 0.000000 0.000000 0.000000 0.000000 0.000000 0.000000 0.364336 1.787334 -23.238022 8.011343 2.833989 1.505720 -15.256322 -40.695836 12.543230 0.000000 0.000000 0.000000 3.055719 0.189527 -22.778477 3.370400 0.596235 1.142041 -4.758426 -0.249875 -1.195326 0.000000 0.000000 0.000000
-38.887517 68.392471 332.353970 -0.928539 -5.608833 21.603453 -0.614572 1.390771 -21.669435 -0.072896 0.746177 -0.067077 -3.964898 0.020642 -1.239281 0.000000 0.000000 0.000000 2.074591 3.800915 0.104318 4.742935 10.012925 -1.324486 23.851915 15.050516 8.290221 -27.947691 -16.173877 -13.859744 0.000000 0.000000 0.000000 0.000000 0.000000 0.000000 0.855030 3.333783 0.054504 -0.558234 -1.483774 0.687124 13.609435 33.503854 -6.313657 -32.672929 -40.552669 -12.448192 0.000000 0.000000 0.000000 0.000000 0.000000 0.000000 0.184110 1.286830 -22.630418 8.086672 2.832242 1.512331 -15.513824 -42.600884 13.321066 0.000000 0.000000 0.000000 2.624846 -0.119399 -22.197551 3.647255 0.629232 1.191852 -4.802029 0.027736 -1.120800 0.000000 0.000000 0.000000
-38.794984 68.401533 332.370583 -0.907837 -5.189675 20.867735 -0.377099 1.376972 -20.935215 0.015722 0.509107 -0.058738 -4.371679 -0.061313 -1.217499 0.000000 0.000000 0.000000 2.159840 4.756047 -0.004604 5.107105 8.691140 -1.363732 20.343142 12.481122 8.143949 -24.123068 -15.506853 -12.005684 0.000000 0.000000 0.000000 0.000000 0.000000 0.000000 0.738590 3.343223 0.096425 0.260881 -0.165598 0.260002 12.131707 34.219963 -6.273336 -30.941238 -38.885940 -10.974803 0.000000 0.000000 0.000000 0.000000 0.000000 0.000000 -0.067986 0.870528 -21.910958 8.179583 2.887908 1.528581 -15.765537 -44.746716 14.418380 0.000000 0.000000 0.000000 2.148609 -0.348556 -21.504169 3.909112 0.765361 1.237568 -4.616843 0.122140 -1.205416 0.000000 0.000000 0.000000
-38.706199 68.385847 332.479594 -0.800159 -4.754877 19.854021 -0.192571 1.276911 -19.915556 0.046107 0.328253 -0.047227 -4.724494 -0.146400 -1.204802 0.000000 0.000000 0.000000 2.210675 5.099780 -0.066412 5.375917 8.046084 -1.463515 15.365177 8.163620 7.650993 -17.044256 -22.411138 -8.986809 0.000000 0.000000 0.000000 0.000000 0.000000 0.000000 1.362776 3.293542 0.074412 0.067729 0.817951 -0.071199 9.474905 32.486915 -5.617728 -25.464958 -36.446578 -7.465434 0.000000 0.000000 0.000000 0.000000 0.000000 0.000000 -0.332504 0.492504 -20.889634 8.029226 2.819072 1.507978 -15.645700 -46.536144 14.611835 0.000000 0.000000 0.000000 1.672547 -0.438308 -20.501747 4.147348 0.791840 1.266421 -4.167304 0.240825 -1.499810 0.000000 0.000000 0.000000
-38.646018 68.358322 332.676212 -0.646226 -4.347061 18.788486 -0.074607 1.095482 -18.840035 0.030043 0.173511 -0.035960 -5.001584 -0.147914 -1.187612 0.000000 0.000000 0.000000 2.285404 5.454984 -0.123220 5.357048 7.082130 -1.475290 13.215024 4.841790 7.440635 -14.067327 -22.759031 -7.508338 0.000000 0.000000 0.000000 0.000000 0.000000 0.000000 1.035280 3.161961 0.057601 0.851829 1.286582 -0.309791 5.684813 30.486707 -5.150421 -18.498579 -33.677706 -3.311453 0.000000 0.000000 0.000000 0.000000 0.000000 0.000000 -0.527362 0.185541 -19.788681 7.724169 2.676443 1.460923 -15.381215 -47.476521 14.633417 0.000000 0.000000 0.000000 1.266365 -0.452002 -19.421107 4.312415 0.797204 1.275298 -3.757206 0.179219 -1.772718 0.000000 0.000000 0.000000
-38.603221 68.312090 332.909076 -0.463405 -4.002385 17.608915 -0.037683 0.884568 -17.647920 -0.009056 0.090598 -0.026273 -5.109577 -0.117829 -1.164473 0.000000 0.000000 0.000000 2.431138 5.805773 -0.175342 4.807334 5.918032 -1.362782 14.687070 0.860196 8.130175 -18.432694 -16.200073 -7.413313 0.000000 0.000000 0.000000 0.000000 0.000000 0.000000 0.772895 3.080872 0.043423 1.678690 1.237963 -0.525262 0.883394 27.432324 -4.683758 -10.897731 -29.081339 0.981738 0.000000 0.000000 0.000000 0.000000 0.000000 0.000000 -0.745368 -0.120981 -18.585238 7.593407 2.701568 1.442130 -15.384249 -47.883623 15.823800 0.000000 0.000000 0.000000 0.896677 -0.410160 -18.218903 4.481364 0.826165 1.283077 -3.411453 0.063174 -2.038056 0.000000 0.000000 0.000000
-38.621594 68.257301 333.211811 -0.285844 -3.723443 16.683392 -0.048801 0.715575 -16.710180 -0.050261 0.039548 -0.019359 -4.941543 0.033023 -1.089226 0.000000 0.000000 0.000000 2.512740 6.057617 -0.214640 4.464762 4.961157 -1.281043 13.345737 -6.190782 8.230858 -14.953248 -6.373312 -5.658905 0.000000 0.000000 0.000000 0.000000 0.000000 0.000000 0.327557 1.898788 -0.240311 2.376833 2.101740 -0.381905 -3.283328 23.356877 -4.302762 -5.597195 -22.209641 3.932860 0.000000 0.000000 0.000000 0.000000 0.000000 0.000000 -0.817007 -0.309742 -17.602424 7.429360 2.689900 1.411415 -15.456814 -47.290349 16.996279 0.000000 0.000000 0.000000 0.686175 -0.333473 -17.243520 4.517905 0.834809 1.264438 -3.063435 -0.025714 -2.304089 0.000000 0.000000 0.000000
-38.707787 68.201292 333.573432 -0.109286 -3.512674 16.025676 -0.100549 0.568327 -16.040806 -0.092034 0.014292 -0.014451 -4.577374 0.426929 -0.930550 0.000000 0.000000 0.000000 2.365065 6.024215 -0.220982 4.207576 4.092457 -1.176232 12.867786 -12.715326 8.361877 -15.411201 4.195298 -3.862472 0.000000 0.000000 0.000000 0.000000 0.000000 0.000000 0.028418 1.413316 -0.358748 2.528051 1.775009 -0.217242 -8.034793 20.953568 -4.747312 1.058066 -15.702344 7.189384 0.000000 0.000000 0.000000 0.000000 0.000000 0.000000 -0.770088 -0.354034 -16.854897 7.079316 2.559688 1.347751 -15.350246 -51.178504 14.244508 0.000000 0.000000 0.000000 0.655352 -0.210873 -16.501911 4.380160 0.809482 1.210702 -2.824829 -0.161808 -2.471153 0.000000 0.000000 0.000000
-38.860728 68.161625 333.941331 -0.012139 -3.398513 15.749361 -0.177179 0.516506 -15.758517 -0.135159 0.012346 -0.015353 -4.246015 0.603852 -0.845403 0.000000 0.000000 0.000000 2.128540 5.600216 -0.182767 4.354169 3.719801 -1.157475 10.227697 -21.125342 7.688704 -14.328545 17.518570 -1.013747 0.000000 0.000000 0.000000 0.000000 0.000000 0.000000 -0.364126 0.912953 -0.466201 2.644125 1.219149 0.040281 -12.431559 17.226625 -5.177702 3.440754 -11.524467 8.695026 0.000000 0.000000 0.000000 0.000000 0.000000 0.000000 -0.527988 -0.267279 -16.463527 6.742635 2.399426 1.276650 -15.227102 -48.575994 13.985377 0.000000 0.000000 0.000000 0.886564 -0.087167 -16.117744 4.022557 0.747538 1.117498 -2.610594 -0.234197 -2.572528 0.000000 0.000000 0.000000
-39.064768 68.141007 334.323769 0.118513 -3.292160 15.775244 -0.173441 0.501924 -15.775961 -0.126648 0.026156 -0.009161 -3.341711 1.203564 -0.585379 0.000000 0.000000 0.000000 1.645603 4.866657 -0.131775 4.502057 3.451104 -1.146017 9.211778 -24.983767 7.223821 -15.817247 24.703013 1.454724 0.000000 0.000000 0.000000 0.000000 0.000000 0.000000 -0.702429 0.504918 -0.550444 2.405621 0.450804 0.311320 -16.004476 15.325754 -5.811434 7.854093 -10.372637 9.902215 0.000000 0.000000 0.000000 0.000000 0.000000 0.000000 -0.250901 -0.038311 -16.343958 6.265315 2.033536 1.171962 -14.755994 -40.277835 14.244186 0.000000 0.000000 0.000000 1.158933 0.068161 -16.016617 3.625054 0.617943 1.011037 -2.553842 -0.387669 -2.577656 0.000000 0.000000 0.000000
-39.300968 68.133314 334.723186 0.370312 -3.140447 15.940856 -0.125978 0.483695 -15.925399 -0.112611 0.032934 0.004197 -2.682936 1.777810 -0.343774 0.000000 0.000000 0.000000 1.080695 4.012510 -0.087228 4.271367 3.383128 -1.103186 12.478408 -31.426210 8.959887 -19.535685 33.209335 4.138789 0.000000 0.000000 0.000000 0.000000 0.000000 0.000000 -0.972192 0.369564 -0.567910 1.830314 -0.562551 0.531763 -19.475887 13.439822 -6.555604 11.404998 -8.755350 10.916984 0.000000 0.000000 0.000000 0.000000 0.000000 0.000000 -0.053302 0.265269 -16.338863 5.696259 1.557534 1.042043 -14.154558 -28.272546 14.344510 0.000000 0.000000 0.000000 1.422094 0.293564 -16.014914 3.104039 0.293282 0.868570 -2.518813 -0.402990 -2.531766 0.000000 0.000000 0.000000
-39.573579 68.100445 335.088873 0.534964 -2.992883 16.172386 -0.275966 0.492818 -16.148486 -0.122649 0.087082 0.003915 -1.188946 2.274753 -0.099605 0.000000 0.000000 0.000000 0.910810 3.228778 -0.033802 3.532233 3.370566 -0.969400 3.427941 -21.323507 3.388851 -11.882572 25.048571 2.699948 0.000000 0.000000 0.000000 0.000000 0.000000 0.000000 -0.862585 0.062631 -0.609444 1.203933 -1.170243 0.758796 -21.791385 14.521480 -7.159462 15.386951 -11.724995 11.818815 0.000000 0.000000 0.000000 0.000000 0.000000 0.000000 0.229548 0.522651 -16.409607 5.275572 1.162303 0.931141 -14.174355 -16.072314 15.401747 0.000000 0.000000 0.000000 1.409587 0.093933 -16.201789 2.800380 0.559994 0.812642 -1.311720 -4.498282 -3.395823 0.000000 0.000000 0.000000
-39.871075 68.079920 335.536517 1.042122 -2.777844 16.558841 -0.034280 0.448779 -16.502815 -0.074869 0.061159 0.038249 -0.803531 2.297289 -0.051578 0.000000 0.000000 0.000000 0.263046 2.176713 -0.001838 2.308304 3.634294 -0.843859 -0.551302 -5.912868 1.342426 -5.327252 10.240728 0.313020 0.000000 0.000000 0.000000 0.000000 0.000000 0.000000 -0.545391 0.064379 -0.621775 -0.010818 -1.455550 0.752140 -24.125353 13.919436 -7.738135 17.597034 -12.750828 12.420521 0.000000 0.000000 0.000000 0.000000 0.000000 0.000000 0.199843 0.999797 -16.597336 4.879159 0.580692 0.808963 -14.309351 -5.628685 16.172034 0.000000 0.000000 0.000000 1.380538 0.259274 -16.423367 2.332855 0.375493 0.681259 -1.784171 -3.489618 -3.003728 0.000000 0.000000 0.000000
